<?xml version="1.0" encoding="utf-8"?>
<!-- Generator: Adobe Illustrator 24.0.1, SVG Export Plug-In . SVG Version: 6.00 Build 0)  -->
<svg version="1.1" id="Layer_1" xmlns="http://www.w3.org/2000/svg" xmlns:xlink="http://www.w3.org/1999/xlink" x="0px" y="0px"
	 viewBox="0 0 2283 923.4" style="enable-background:new 0 0 2283 923.4;" xml:space="preserve">
<style type="text/css">
	.st0{fill:#0072BD;fill-opacity:0.502;}
	.st1{fill:none;stroke:#0072BD;stroke-width:0.6667;stroke-linejoin:round;stroke-miterlimit:10;stroke-opacity:0.502;}
	.st2{fill:#D95319;}
	.st3{fill:#EDB120;}
	.st4{fill:#7E2F8E;}
	.st5{fill:#77AC30;}
	.st6{fill:#4DBEEE;}
	.st7{fill:#FF8080;}
	.st8{font-family:'ArialMT';}
	.st9{font-size:16px;}
	.st10{fill:#FFFFFF;}
	.st11{font-size:26.6667px;}
	.st12{fill:none;stroke:#262626;stroke-width:0.6667;stroke-miterlimit:10;}
</style>
<g>
	<path class="st0" d="M1381.1,859.1l9.3,3.5l-3.3-3.5l3.3-3.5L1381.1,859.1z M1492.2,843.4l9.3,3.5l-3.3-3.5l3.3-3.5L1492.2,843.4z
		 M1308.2,827.7l9.3,3.5l-3.3-3.5l3.3-3.5L1308.2,827.7z M1479.4,874.7l9.3,3.5l-3.3-3.5l3.3-3.5L1479.4,874.7z M1608.7,725.8
		l9.2,3.9l-3.1-3.6l3.4-3.4L1608.7,725.8z M1608.7,545.6l3.9,9.2l0.3-4.8h4.8L1608.7,545.6z M1608.7,655.3l7.1,7l-1.6-4.5l4.4-1.9
		L1608.7,655.3z M1426.8,733.5l9.2,3.8l-3.2-3.6l3.4-3.4L1426.8,733.5z M1230.4,749.3l9.3,3.5l-3.3-3.5l3.3-3.5L1230.4,749.3z
		 M897.6,537.7l10,0.6l-4.2-2.4l2.1-4.3L897.6,537.7z M1964.2,725.8l9.5,3.1l-3.4-3.4l3.1-3.6L1964.2,725.8z M1964.2,706.2l9.1,4.1
		l-3-3.7l3.5-3.3L1964.2,706.2z M1964.2,623.9l6.6,7.5l-1.3-4.6l4.5-1.6L1964.2,623.9z M1964.2,631.8l6.9,7.2l-1.4-4.6l4.5-1.7
		L1964.2,631.8z M1964.2,651.4l7.5,6.6l-1.8-4.4l4.3-2.1L1964.2,651.4z M1599.6,796.4l9.3,3.5l-3.3-3.5l3.3-3.5L1599.6,796.4z
		 M1520.1,780.7l9.3,3.5l-3.3-3.5l3.3-3.5L1520.1,780.7z M1518,812l9.3,3.5l-3.3-3.5l3.3-3.5L1518,812z M1334.8,765l9.3,3.5
		l-3.3-3.5l3.3-3.5L1334.8,765z M995.2,36.1l9.3,3.5l-3.3-3.5l3.3-3.5L995.2,36.1z M896.3,428l9.3,3.5l-3.3-3.5l3.3-3.5L896.3,428z
		 M1778.4,518.4l9.9-1.2l-4.5-1.6l1.3-4.6L1778.4,518.4z M1964.2,388.8l9.9,1.4l-3.9-2.7l2.4-4.1L1964.2,388.8z M1574.1,286.9
		l9.3,3.5l-3.3-3.5l3.3-3.5L1574.1,286.9z M1964.2,357.4l9.5,3.1l-3.4-3.4l3.1-3.6L1964.2,357.4z M1786.4,349.6l9.3,3.5l-3.3-3.5
		l3.3-3.5L1786.4,349.6z M1964.2,439.7l9.9-1.1l-4.5-1.6l1.3-4.6L1964.2,439.7z M1964.2,447.6l9.9-1.4l-4.6-1.5l1.2-4.6
		L1964.2,447.6z M1796.8,495.4l9.9,0.6l-4.1-2.4l2.1-4.3L1796.8,495.4z M1964.2,467.2l9.7-2.2l-4.7-1.1l0.8-4.7L1964.2,467.2z
		 M1518.8,271.2l9.3,3.5l-3.3-3.5l3.3-3.5L1518.8,271.2z M1787.3,318.3l9.3,3.6l-3.2-3.5l3.3-3.5L1787.3,318.3z M1600.1,255.6
		l9.3,3.5l-3.3-3.5l3.3-3.5L1600.1,255.6z M1964.2,212.4l5.3,8.5l-0.4-4.8l4.7-0.8L1964.2,212.4z M1430.9,381l9.3,3.5l-3.3-3.5
		l3.3-3.5L1430.9,381z M1380.1,302.6l9.3,3.5l-3.3-3.5l3.3-3.5L1380.1,302.6z M1603.8,333.9l9.3,3.5l-3.3-3.5l3.3-3.5L1603.8,333.9z
		 M1428,239.9l9.3,3.5l-3.3-3.5l3.3-3.5L1428,239.9z M1253.1,478.9l9.4,3.3l-3.3-3.4l3.2-3.6L1253.1,478.9z M1253.1,435.8l8.4,5.4
		l-2.4-4.1l3.9-2.7L1253.1,435.8z M1072.3,530.1l9.5,3l-3.5-3.3l3.1-3.7L1072.3,530.1z M1253.1,502.4l8.9,4.5l-2.9-3.8l3.6-3.1
		L1253.1,502.4z M1253.1,518.1l9.3,3.7l-3.2-3.6l3.3-3.4L1253.1,518.1z M1073.5,545.6l9.4,3.3l-3.3-3.4l3.2-3.6L1073.5,545.6z
		 M1253.1,529.9l9,4.3l-2.9-3.8l3.6-3.2L1253.1,529.9z M1253.1,486.8l9.3,3.7l-3.2-3.6l3.3-3.4L1253.1,486.8z M1253.1,510.3l9.4,3.3
		l-3.3-3.4l3.2-3.6L1253.1,510.3z M1074.5,561.2l9.4,3.4l-3.3-3.5l3.2-3.5L1074.5,561.2z M1253.1,522l8.4,5.4l-2.4-4.1l3.9-2.7
		L1253.1,522z M1253.1,612.2l9.9,0.8l-4.1-2.5l2.2-4.3L1253.1,612.2z M1608.7,361.4l9.3,3.7l-3.2-3.6l3.3-3.4L1608.7,361.4z
		 M1608.7,706.2l9.5,2.9l-3.5-3.3l3-3.7L1608.7,706.2z M1608.7,526l4.4,9v-4.8l4.8-0.3L1608.7,526z M1608.7,635.7l7.8,6.3l-2-4.3
		l4.2-2.3L1608.7,635.7z M1430.5,686.6l9.2,3.8l-3.1-3.6l3.4-3.4L1430.5,686.6z M1240.6,702.3l9.3,3.5l-3.3-3.5l3.3-3.5
		L1240.6,702.3z M1964.2,686.6l9.9,1l-4.1-2.5l2.3-4.2L1964.2,686.6z M1964.2,667l9.8,2l-3.8-3l2.7-4L1964.2,667z M1964.2,584.7
		l7.9,6.1l-2.1-4.3l4.2-2.4L1964.2,584.7z M1964.2,592.6l8.1,5.8l-2.3-4.2l4.1-2.5L1964.2,592.6z M1964.2,612.2l8.7,4.9l-2.7-4
		l3.8-3L1964.2,612.2z M1608.8,655.3l9.3,3.5l-3.3-3.5l3.3-3.5L1608.8,655.3z M1566.1,639.6l9.3,3.5l-3.3-3.5l3.3-3.5L1566.1,639.6z
		 M1562,671l9.3,3.5l-3.3-3.5l3.3-3.5L1562,671z M1383.6,623.9l9.3,3.5l-3.3-3.5l3.3-3.5L1383.6,623.9z M1253.1,377l9.7,2.5
		l-3.6-3.1l2.9-3.8L1253.1,377z M1075.5,341.8l9.3,3.6l-3.2-3.5l3.3-3.5L1075.5,341.8z M1253.1,384.9l9.8,2l-3.8-3l2.7-4
		L1253.1,384.9z M1075.3,357.4l9.3,3.5l-3.3-3.5l3.3-3.5L1075.3,357.4z M1769,209.6l9.5,2.9l-3.5-3.3l3.1-3.7L1769,209.6z
		 M1964.2,373.1l9.3-3.5l-4.8-0.5l0.1-4.8L1964.2,373.1z M1964.2,381l9.2-3.8l-4.8-0.3v-4.8L1964.2,381z M1711.6,248.5l9.7-2.2
		l-4.7-1.1l0.8-4.7L1711.6,248.5z M1964.2,400.6l9-4.3l-4.8-0.1l-0.2-4.8L1964.2,400.6z M1483.1,192.9l9.3,3.5l-3.3-3.5l3.3-3.5
		L1483.1,192.9z M1608.7,424.1l6.2,7.8l-1-4.7l4.6-1.3L1608.7,424.1z M1608.7,510.3l8.5,5.2l-2.5-4.1l3.9-2.8L1608.7,510.3z
		 M1608.7,518.1l8.7,4.9l-2.7-4l3.8-3L1608.7,518.1z M1434.5,460l8.6,5.1l-2.6-4l3.8-2.9L1434.5,460z M1037.7,573.1l8.1,5.8
		l-2.3-4.2l4.1-2.5L1037.7,573.1z M1608.7,553.4l8.6,5.1l-2.6-4l3.8-2.9L1608.7,553.4z M1608.7,565.1l8.9,4.5l-2.9-3.8l3.6-3.1
		L1608.7,565.1z M1608.7,545.6l8.4,5.4l-2.4-4.1l3.9-2.7L1608.7,545.6z M1608.7,573l9.1,4.1l-3-3.7l3.5-3.3L1608.7,573z M897.6,620
		l8.2,5.6l-2.3-4.2l4-2.6L897.6,620z M897.6,514.2l4.9,8.7l-0.3-4.8l4.8-0.6L897.6,514.2z M1028.5,325.4l9.9,0.7l-4.1-2.4l2.1-4.3
		L1028.5,325.4z M897.6,373.1l8.8,4.7l-2.8-3.9l3.7-3L897.6,373.1z M897.6,381l9,4.3l-2.9-3.8l3.6-3.2L897.6,381z M1608.7,196.8
		l9.7-2.4l-4.7-1l0.7-4.7L1608.7,196.8z M1203.1,83.1l9.3,3.5l-3.3-3.5l3.3-3.5L1203.1,83.1z M1192.7,67.4l9.3,3.5l-3.3-3.5l3.3-3.5
		L1192.7,67.4z M1964.2,63.5l9.5,2.9l-3.5-3.3l3-3.7L1964.2,63.5z M1370.4,51.8l9.3,3.5l-3.3-3.5l3.3-3.5L1370.4,51.8z M1964.2,75.3
		l9.3,3.5l-3.3-3.5l3.3-3.5L1964.2,75.3z M542,369.2l9.7,2.5l-3.6-3.1l2.9-3.8L542,369.2z M542,482.9l6.6,7.5l-1.3-4.6l4.5-1.6
		L542,482.9z M719.3,412.3l9.3,3.6l-3.2-3.5l3.3-3.5L719.3,412.3z M542,377l9.5,2.9l-3.5-3.3l3-3.7L542,377z M186.4,388.8l9.3,3.5
		l-3.3-3.5l3.3-3.5L186.4,388.8z M1383.5,140.7l10,0.2l-4.2-2.2l1.9-4.4L1383.5,140.7z M1208.1,114.5l9.3,3.5l-3.3-3.5l3.3-3.5
		L1208.1,114.5z M1513.8,4.7l9.3,3.5l-3.3-3.5l3.3-3.5L1513.8,4.7z M1353.9,20.4l9.3,3.5l-3.3-3.5l3.3-3.5L1353.9,20.4z
		 M1517.3,98.8l9.3,3.5l-3.3-3.5l3.3-3.5L1517.3,98.8z M1964.2,118.4l9.3,3.7l-3.2-3.6l3.3-3.4L1964.2,118.4z M1964.2,141.9l9.7,2.5
		l-3.6-3.1l2.9-3.8L1964.2,141.9z M1391,166.1l9.9,0.9l-4.1-2.5l2.2-4.2L1391,166.1z M1392.6,183.9l10,0.5l-4.2-2.3l2.1-4.3
		L1392.6,183.9z M1217.7,145.8l9.3,3.5l-3.3-3.5l3.3-3.5L1217.7,145.8z"/>
</g>
<g>
	<path class="st1" d="M2142,843.4l-35.6,2.3l-35.6,2.3l-35.6,2.2l-35.6,2.1l-35.6,1.9l-35.6,1.6l-35.6,1.4l-35.6,1l-35.6,0.7
		l-35.6,0.2h-35.6h-35.6h-35.6h-35.6H1608h-35.6h-35.6H1502h-35.6h-35.6h-35.6h-35.6H1324h-35.6h-35.6h-35.6H1182h-35.6h-35.6h-35.6
		l-35.6-3.9l-35.6-11.1l-35.6-17.5l-35.6-23.1l-35.6-27.8L862,743.9l-35.6-35l-35.6-37.4l-35.6-39l-35.6-39.8"/>
	<path class="st1" d="M2142,843.4h-35.6h-35.6h-35.6h-35.6H1964h-35.6h-35.6h-35.6H1822h-35.6h-35.6h-35.6h-35.6H1644h-35.6h-35.6
		h-35.6H1502h-35.6h-35.6l-35.6-6.5l-35.6-18.5l-35.6-29.3l-35.6-38.6l-35.6-46.7l-35.6-53.4l-35.6-58.7l-35.6-62.8l-35.6-65.4
		l-35.6-66.8"/>
	<path class="st1" d="M2142,843.4l-35.6-2.3l-35.6-2.3l-35.6-2.2l-35.6-2.1l-35.6-1.9l-35.6-1.6l-35.6-1.4l-35.6-1l-35.6-0.7
		l-35.6-0.2h-35.6h-35.6h-35.6h-35.6H1608h-35.6h-35.6H1502h-35.6h-35.6h-35.6h-35.6H1324h-35.6h-35.6h-35.6H1182h-35.6h-35.6h-35.6
		l-35.6-6.7l-35.6-19.2l-35.6-30.3l-35.6-40l-35.6-48.3L862,627.9l-35.6-60.8l-35.6-65l-35.6-67.7l-35.6-69.1"/>
	<path class="st1" d="M2142,874.7h-35.6h-35.6h-35.6h-35.6H1964h-35.6h-35.6h-35.6H1822h-35.6h-35.6h-35.6h-35.6H1644h-35.6h-35.6
		h-35.6H1502h-35.6h-35.6l-35.6-6.9l-35.6-19.8l-35.6-31.3l-35.6-41.4l-35.6-50l-35.6-57.1l-35.6-62.9l-35.6-67.2l-35.6-70
		l-35.6-71.5"/>
	<line class="st1" x1="1786.4" y1="733.7" x2="1430.9" y2="718"/>
	<line class="st1" x1="1786.4" y1="733.7" x2="1430.9" y2="357.4"/>
	<line class="st1" x1="1786.4" y1="733.7" x2="1430.9" y2="576.9"/>
	<path class="st1" d="M1786.4,733.7h-35.6h-35.6h-35.6H1644h-35.6h-35.6h-35.6H1502h-35.6h-35.6l-35.6-1l-35.6-2.9l-35.6-4.6
		l-35.6-6.1l-35.6-7.4l-35.6-8.4l-35.6-9.3l-35.6-9.9l-35.6-10.3l-35.6-10.5"/>
	<path class="st1" d="M1786.4,733.7l-35.6,2.3l-35.6,2.3l-35.6,2.2l-35.6,2.1l-35.6,1.9l-35.6,1.6l-35.6,1.4l-35.6,1l-35.6,0.7
		l-35.6,0.2h-35.6h-35.6h-35.6H1288h-35.6h-35.6H1182h-35.6h-35.6h-35.6l-35.6-2.5l-35.6-7.2l-35.6-11.3l-35.6-14.9l-35.6-18
		L862,674.8l-35.6-22.7l-35.6-24.2l-35.6-25.3l-35.6-25.8"/>
	<line class="st1" x1="1075.3" y1="482.9" x2="719.8" y2="592.6"/>
	<line class="st1" x1="2142" y1="718" x2="1786.4" y2="733.7"/>
	<line class="st1" x1="2142" y1="718" x2="1786.4" y2="694.5"/>
	<line class="st1" x1="2142" y1="718" x2="1786.4" y2="529.9"/>
	<line class="st1" x1="2142" y1="718" x2="1786.4" y2="545.6"/>
	<line class="st1" x1="2142" y1="718" x2="1786.4" y2="584.7"/>
	<path class="st1" d="M2142,718l-35.6,11.7l-35.6,11.5l-35.6,11l-35.6,10.3l-35.6,9.4l-35.6,8.2l-35.6,6.8l-35.6,5.1l-35.6,3.3
		l-35.6,1.1h-35.6h-35.6h-35.6h-35.6H1608h-35.6h-35.6H1502h-35.6h-35.6l-35.6-1.9l-35.6-5.5l-35.6-8.7l-35.6-11.5l-35.6-13.9
		l-35.6-15.9l-35.6-17.5l-35.6-18.7l-35.6-19.5l-35.6-19.9"/>
	<path class="st1" d="M2142,718l-35.6,9.4l-35.6,9.2l-35.6,8.8l-35.6,8.2l-35.6,7.5l-35.6,6.6l-35.6,5.4l-35.6,4.1l-35.6,2.6
		l-35.6,0.9h-35.6h-35.6h-35.6h-35.6H1608h-35.6h-35.6H1502h-35.6h-35.6l-35.6-5.6l-35.6-15.9L1324,734l-35.6-33.2l-35.6-40.1
		l-35.6-45.9l-35.6-50.5l-35.6-54l-35.6-56.3l-35.6-57.4"/>
	<path class="st1" d="M2142,718l-35.6,14.1l-35.6,13.8l-35.6,13.2l-35.6,12.4l-35.6,11.2l-35.6,9.8l-35.6,8.1l-35.6,6.2l-35.6,3.9
		l-35.6,1.4h-35.6h-35.6h-35.6h-35.6H1608h-35.6h-35.6H1502h-35.6h-35.6l-35.6-5.8l-35.6-16.6l-35.6-26.2l-35.6-34.6l-35.6-41.8
		l-35.6-47.8l-35.6-52.6l-35.6-56.2l-35.6-58.6l-35.6-59.8"/>
	<path class="st1" d="M2142,718l-35.6,7l-35.6,6.9l-35.6,6.6l-35.6,6.2l-35.6,5.6l-35.6,4.9l-35.6,4.1l-35.6,3.1l-35.6,2l-35.6,0.7
		h-35.6h-35.6h-35.6h-35.6H1608h-35.6h-35.6H1502h-35.6h-35.6h-35.6h-35.6H1324h-35.6h-35.6h-35.6H1182h-35.6h-35.6h-35.6l-35.6-5.8
		l-35.6-16.6l-35.6-26.2l-35.6-34.6l-35.6-41.8L862,592.3l-35.6-52.6l-35.6-56.2L755.3,425l-35.6-59.8"/>
	<path class="st1" d="M2142,36.1h-35.6h-35.6h-35.6h-35.6H1964h-35.6h-35.6h-35.6H1822h-35.6h-35.6h-35.6h-35.6H1644h-35.6h-35.6
		h-35.6H1502h-35.6h-35.6h-35.6h-35.6H1324h-35.6h-35.6h-35.6H1182h-35.6h-35.6h-35.6h-35.6H1004h-35.6h-35.6h-35.6H862h-35.6h-35.6
		h-35.6h-35.6H684h-35.6h-35.6h-35.6H542h-35.6h-35.6h-35.6h-35.6H364l-35.6,5.1l-35.6,14.6l-35.6,23.1L222,109.5l-35.6,36.9
		l-35.6,42.1l-35.6,46.4l-35.6,49.6L44,336.2L8.7,388.8"/>
	<path class="st1" d="M1786.4,428h-35.6h-35.6h-35.6H1644h-35.6h-35.6h-35.6H1502h-35.6h-35.6h-35.6h-35.6H1324h-35.6h-35.6h-35.6
		H1182h-35.6h-35.6h-35.6h-35.6H1004h-35.6h-35.6h-35.6H862h-35.6h-35.6h-35.6h-35.6H684h-35.6h-35.6h-35.6H542h-35.6h-35.6h-35.6
		h-35.6H364l-35.6-0.6l-35.6-1.6l-35.6-2.6l-35.6-3.4l-35.6-4.1l-35.6-4.7l-35.6-5.2l-35.6-5.5l-35.6-5.7L8,388.7"/>
	<path class="st1" d="M2142,349.6l-35.6,14.7l-35.6,15.1l-35.6,15.5l-35.6,15.9l-35.6,16.3l-35.6,16.7l-35.6,17.1l-35.6,17.4
		l-35.6,17.7l-35.6,18.1l-35.6,18.4l-35.6,18.9l-35.6,19.4l-35.6,19.8l-35.6,20.2l-35.6,20.6l-35.6,21L1502,674l-35.6,21.8
		l-35.6,22.2"/>
	<line class="st1" x1="2142" y1="349.6" x2="1786.4" y2="428"/>
	<path class="st1" d="M2142,349.6l-35.6-9.4l-35.6-9.2l-35.6-8.8l-35.6-8.2l-35.6-7.5l-35.6-6.6l-35.6-5.4l-35.6-4.1l-35.6-2.6
		l-35.6-0.9h-35.6h-35.6h-35.6h-35.6H1608h-35.6h-35.6H1502h-35.6h-35.6l-35.6,3.3l-35.6,9.4l-35.6,14.9l-35.6,19.7l-35.6,23.8
		l-35.6,27.2L1182,415l-35.6,31.9l-35.6,33.3l-35.6,34"/>
	<line class="st1" x1="2142" y1="349.6" x2="1786.4" y2="365.3"/>
	<path class="st1" d="M2142,349.6h-35.6h-35.6h-35.6h-35.6H1964h-35.6h-35.6h-35.6H1822h-35.6l-35.6,0.1l-35.6,0.3l-35.6,0.5
		l-35.6,0.7l-35.6,0.8l-35.6,0.9l-35.6,1l-35.6,1.1l-35.6,1.1l-35.6,1.2"/>
	<line class="st1" x1="2142" y1="349.6" x2="1786.4" y2="529.9"/>
	<line class="st1" x1="2142" y1="349.6" x2="1786.4" y2="545.6"/>
	<path class="st1" d="M2142,349.6l-35.6,18.2l-35.6,17.6l-35.6,17l-35.6,16.3l-35.6,15.6l-35.6,14.7l-35.6,13.9l-35.6,12.9
		l-35.6,11.9l-35.6,10.8l-35.6,10.1l-35.6,9.8l-35.6,9.4l-35.6,8.9l-35.6,8.4l-35.6,7.8l-35.6,7.1l-35.6,6.4l-35.6,5.6l-35.6,4.8"/>
	<line class="st1" x1="2142" y1="349.6" x2="1786.4" y2="584.7"/>
	<path class="st1" d="M2142,349.6l-35.6-11.7l-35.6-11.5l-35.6-11l-35.6-10.3l-35.6-9.4l-35.6-8.2l-35.6-6.8l-35.6-5.1l-35.6-3.3
		l-35.6-1.1h-35.6h-35.6h-35.6h-35.6H1608h-35.6h-35.6H1502h-35.6h-35.6l-35.6,5.7l-35.6,16.3l-35.6,25.7l-35.6,33.9l-35.6,41
		l-35.6,46.8l-35.6,51.5l-35.6,55.1l-35.6,57.4l-35.6,58.6"/>
	<path class="st1" d="M2142,349.6l-35.6-4.7l-35.6-4.6l-35.6-4.4l-35.6-4.1l-35.6-3.7l-35.6-3.3l-35.6-2.7l-35.6-2.1l-35.6-1.3
		l-35.6-0.5h-35.6h-35.6h-35.6h-35.6H1608h-35.6h-35.6H1502h-35.6h-35.6"/>
	<path class="st1" d="M2142,349.6l-35.6-14.1l-35.6-13.8l-35.6-13.2l-35.6-12.4l-35.6-11.2l-35.6-9.8l-35.6-8.1l-35.6-6.2l-35.6-3.9
		l-35.6-1.4h-35.6h-35.6h-35.6h-35.6H1608h-35.6h-35.6H1502h-35.6h-35.6l-35.6,2l-35.6,5.9l-35.6,9.2l-35.6,12.2l-35.6,14.7
		l-35.6,16.9l-35.6,18.6l-35.6,19.8l-35.6,20.7l-35.6,21.1"/>
	<line class="st1" x1="2142" y1="349.6" x2="1786.4" y2="75.3"/>
	<path class="st1" d="M2142,349.6l-35.6,4.7l-35.6,4.6l-35.6,4.4l-35.6,4.1l-35.6,3.7l-35.6,3.3l-35.6,2.7l-35.6,2.1l-35.6,1.3
		L1786,381h-35.6h-35.6h-35.6h-35.6H1608h-35.6h-35.6H1502h-35.6h-35.6h-35.6h-35.6H1324h-35.6h-35.6h-35.6H1182h-35.6h-35.6h-35.6
		l-35.6-0.5l-35.6-1.3l-35.6-2.1l-35.6-2.7l-35.6-3.3l-35.6-3.7l-35.6-4.1l-35.6-4.4l-35.6-4.6l-35.6-4.7"/>
	<path class="st1" d="M2142,349.6l-35.6-7l-35.6-6.9l-35.6-6.6l-35.6-6.2l-35.6-5.6l-35.6-4.9l-35.6-4.1l-35.6-3.1l-35.6-2
		l-35.6-0.7h-35.6h-35.6h-35.6h-35.6H1608h-35.6h-35.6H1502h-35.6h-35.6h-35.6h-35.6H1324h-35.6h-35.6h-35.6H1182h-35.6h-35.6h-35.6
		l-35.6,4l-35.6,11.4l-35.6,18l-35.6,23.7l-35.6,28.7L862,421.1l-35.6,36.1l-35.6,38.5l-35.6,40.2l-35.6,41"/>
	<path class="st1" d="M2142,349.6l-35.6-2.3l-35.6-2.3l-35.6-2.2l-35.6-2.1l-35.6-1.9l-35.6-1.6l-35.6-1.4l-35.6-1l-35.6-0.7
		l-35.6-0.2h-35.6h-35.6h-35.6h-35.6H1608h-35.6h-35.6H1502h-35.6h-35.6l-35.6,1.1l-35.6,3.3l-35.6,5.1l-35.6,6.8l-35.6,8.2
		l-35.6,9.4l-35.6,10.3l-35.6,11l-35.6,11.5l-35.6,11.7"/>
	<path class="st1" d="M2142,349.6l-35.6-16.4l-35.6-16.1l-35.6-15.4l-35.6-14.4l-35.6-13.1l-35.6-11.5l-35.6-9.5l-35.6-7.2
		l-35.6-4.6l-35.6-1.6h-35.6h-35.6h-35.6h-35.6H1608h-35.6h-35.6H1502h-35.6h-35.6h-35.6h-35.6H1324h-35.6h-35.6h-35.6H1182h-35.6
		h-35.6h-35.6l-35.6,1.8l-35.6,5.2l-35.6,8.2l-35.3,11l-35.6,13.1l-35.6,15l-35.6,16.5l-35.6,17.6l-35.6,18.4l-35.6,18.7"/>
	<line class="st1" x1="1430.9" y1="475" x2="1075.3" y2="482.9"/>
	<line class="st1" x1="1430.9" y1="475" x2="1075.3" y2="396.6"/>
	<path class="st1" d="M1430.9,522l-35.6,0.1l-35.6,0.3l-35.6,0.4l-35.6,0.6l-35.6,0.8l-35.6,0.9l-35.6,1l-35.6,1.1l-35.6,1.3
		l-35.6,1.3l-35.6,2.1l-35.6,3.3l-35.6,4.5l-35.6,5.5l-35.6,6.4l-35.6,7.2l-35.6,7.8l-35.6,8.3l-35.6,8.7l-35.6,8.9"/>
	<line class="st1" x1="1430.9" y1="522" x2="1075.3" y2="482.9"/>
	<line class="st1" x1="1430.9" y1="522" x2="1075.3" y2="514.2"/>
	<path class="st1" d="M1430.9,545.6h-35.6h-35.6h-35.6h-35.6h-35.6h-35.6H1182h-35.6h-35.6h-35.6l-35.6,0.7l-35.6,2l-35.6,3.1
		l-35.6,4.1l-35.6,4.9l-35.6,5.6l-35.6,6.2l-35.6,6.6l-35.6,6.9l-35.6,7"/>
	<line class="st1" x1="1430.9" y1="545.6" x2="1075.3" y2="514.2"/>
	<line class="st1" x1="1430.9" y1="490.7" x2="1075.3" y2="482.9"/>
	<line class="st1" x1="1430.9" y1="506.4" x2="1075.3" y2="514.2"/>
	<path class="st1" d="M1430.9,561.2h-35.6h-35.6h-35.6h-35.6h-35.6h-35.6H1182h-35.6h-35.6h-35.6l-35.6,0.5L1004,563l-35.6,2.1
		l-35.6,2.7l-35.6,3.3l-35.6,3.7l-35.6,4.1l-35.6,4.4l-35.6,4.6l-35.6,4.7"/>
	<line class="st1" x1="1430.9" y1="561.2" x2="1075.3" y2="482.9"/>
	<line class="st1" x1="1430.9" y1="561.2" x2="1075.3" y2="663.1"/>
	<line class="st1" x1="1786.4" y1="365.3" x2="1430.9" y2="357.4"/>
	<line class="st1" x1="1786.4" y1="694.5" x2="1430.9" y2="718"/>
	<line class="st1" x1="1786.4" y1="694.5" x2="1430.9" y2="357.4"/>
	<line class="st1" x1="1786.4" y1="694.5" x2="1430.9" y2="576.9"/>
	<path class="st1" d="M1786.4,694.5l-35.6-0.1l-35.6-0.3l-35.6-0.5l-35.6-0.7l-35.6-0.8l-35.6-0.9l-35.6-1L1502,689l-35.6-1.1
		l-35.6-1.2l-35.6-1.3l-35.6-1.6l-35.6-1.9l-35.6-2.1l-35.6-2.3l-35.6-2.5l-35.6-2.7l-35.6-2.9l-35.6-3l-35.6-3.1"/>
	<path class="st1" d="M1786.4,694.5l-35.6,1.2l-35.6,1.1l-35.6,1.1l-35.6,1l-35.6,0.9l-35.6,0.8l-35.6,0.7l-35.6,0.5l-35.6,0.3
		l-35.6,0.1h-35.6h-35.6h-35.6H1288h-35.6h-35.6H1182h-35.6h-35.6h-35.6l-35.6-1.8l-35.6-5.2l-35.6-8.2l-35.6-10.8l-35.6-13.1
		l-35.6-15L826,631.6L790.9,614l-35.6-18.4l-35.6-18.7"/>
	<line class="st1" x1="2142" y1="639.6" x2="1786.4" y2="733.7"/>
	<line class="st1" x1="2142" y1="639.6" x2="1786.4" y2="694.5"/>
	<line class="st1" x1="2142" y1="639.6" x2="1786.4" y2="529.9"/>
	<line class="st1" x1="2142" y1="639.6" x2="1786.4" y2="545.6"/>
	<line class="st1" x1="2142" y1="639.6" x2="1786.4" y2="584.7"/>
	<path class="st1" d="M2142,639.6l-35.6,2.3l-35.6,2.3l-35.6,2.2l-35.6,2.1l-35.6,1.9l-35.6,1.6l-35.6,1.4l-35.6,1l-35.6,0.7
		l-35.6,0.2h-35.6h-35.6h-35.6h-35.6H1608h-35.6h-35.6H1502h-35.6h-35.6l-35.6,0.1l-35.6,0.3l-35.6,0.5l-35.6,0.7l-35.6,0.8
		l-35.6,0.9l-35.6,1l-35.6,1.1l-35.6,1.1l-35.6,1.2"/>
	<path class="st1" d="M2142,639.6h-35.6h-35.6h-35.6h-35.6H1964h-35.6h-35.6h-35.6H1822h-35.6h-35.6h-35.6h-35.6H1644h-35.6h-35.6
		h-35.6H1502h-35.6h-35.6l-35.6-3.5l-35.6-10.1l-35.6-15.9l-35.6-21l-35.6-25.4l-35.6-29l-35.6-32l-35.6-34.1l-35.6-35.6l-35.6-36.3
		"/>
	<path class="st1" d="M2142,639.6l-35.6,4.7l-35.6,4.6l-35.6,4.4l-35.6,4.1l-35.6,3.7l-35.6,3.3l-35.6,2.7l-35.6,2.1l-35.6,1.3
		L1786,671h-35.6h-35.6h-35.6h-35.6H1608h-35.6h-35.6H1502h-35.6h-35.6l-35.6-3.8l-35.6-10.7l-35.6-16.9l-35.6-22.4l-35.6-27
		l-35.6-30.9l-35.6-34L1146,489l-35.6-37.9l-35.6-38.7"/>
	<path class="st1" d="M2142,639.6l-35.6-2.3l-35.6-2.3l-35.6-2.2l-35.6-2.1l-35.6-1.9l-35.6-1.6l-35.6-1.4l-35.6-1l-35.6-0.7
		l-35.6-0.2h-35.6h-35.6h-35.6h-35.6H1608h-35.6h-35.6H1502h-35.6h-35.6h-35.6h-35.6H1324h-35.6h-35.6h-35.6H1182h-35.6h-35.6h-35.6
		l-35.6-3.8l-35.6-10.7l-35.6-16.9l-35.6-22.4l-35.6-27L862,512.2l-35.6-34l-35.6-36.3L755.3,404l-35.6-38.7"/>
	<line class="st1" x1="1430.9" y1="357.4" x2="1075.3" y2="396.6"/>
	<path class="st1" d="M1430.9,357.4l-35.6-2.7l-35.6-2.5l-35.6-2.3l-35.6-2l-35.6-1.8l-35.6-1.5l-35.6-1.2l-35.6-0.9l-35.6-0.6
		l-35.6-0.2h-35.6l-35.6,0.1l-35.6,0.3l-35.6,0.4l-35.6,0.6L862,344l-35.6,1l-35.6,1.3l-35.6,1.5l-35.6,1.8"/>
	<line class="st1" x1="1430.9" y1="357.4" x2="1075.3" y2="412.3"/>
	<path class="st1" d="M1430.9,357.4h-35.6h-35.6h-35.6h-35.6h-35.6h-35.6H1182h-35.6h-35.6h-35.6l-35.6,0.1l-35.6,0.3l-35.6,0.5
		l-35.6,0.7l-35.6,0.8l-35.6,0.9l-35.6,1l-35.6,1.1l-35.6,1.1l-35.6,1.2"/>
	<path class="st1" d="M2142,216.4l-35.6-2.1l-35.6-1.7l-35.6-1.3l-35.6-1l-35.6-0.7l-35.6-0.5l-35.6-0.3l-35.6-0.1l-35.6-0.1H1786
		l-35.6,2.1l-35.6,6.1l-35.6,9.6l-35.6,12.8l-35.6,15.4l-35.6,17.7l-35.6,19.6l-35.6,21l-35.6,22l-35.6,22.6"/>
	<line class="st1" x1="2142" y1="216.4" x2="1786.4" y2="529.9"/>
	<line class="st1" x1="2142" y1="216.4" x2="1786.4" y2="545.6"/>
	<path class="st1" d="M2142,216.4l-35.6,0.1l-35.6,0.2l-35.6,0.4l-35.6,0.6l-35.6,0.7l-35.6,0.9l-35.6,1l-35.6,1.2l-35.6,1.3
		l-35.6,1.5l-35.6,6.4l-35.6,15.4l-35.6,23.5l-35.6,30.6l-35.6,36.7l-35.6,41.8l-35.6,45.9l-35.6,49l-35.6,51.1L1430,577"/>
	<line class="st1" x1="2142" y1="216.4" x2="1786.4" y2="584.7"/>
	<path class="st1" d="M2142,216.4l-35.6-3.5l-35.6-3.4l-35.6-3.3l-35.6-3.1l-35.6-2.8l-35.6-2.5l-35.6-2l-35.6-1.5l-35.6-1L1786,193
		h-35.6h-35.6h-35.6h-35.6H1608h-35.6h-35.6H1502h-35.6h-35.6l-35.6,6.8l-35.6,19.5l-35.6,30.8l-35.6,40.7l-35.6,49.1l-35.6,56.2
		l-35.6,61.8L1146,524l-35.6,68.9l-35.6,70.3"/>
	<line class="st1" x1="1786.4" y1="529.9" x2="1430.9" y2="318.3"/>
	<line class="st1" x1="1786.4" y1="545.6" x2="1430.9" y2="475"/>
	<line class="st1" x1="1786.4" y1="545.6" x2="1430.9" y2="490.7"/>
	<path class="st1" d="M1786.4,545.6l-35.6-10.4l-35.6-10.1l-35.6-9.8l-35.6-9.4l-35.6-9l-35.6-8.5l-35.6-8.1l-35.6-7.5l-35.6-7
		l-35.6-6.4l-35.6-6l-35.6-5.8l-35.6-5.6l-35.6-5.3l-35.6-5l-35.6-4.7l-35.6-4.3l-35.6-3.9l-35.6-3.5l-35.6-3"/>
	<path class="st1" d="M1430.9,576.9h-35.6h-35.6h-35.6h-35.6h-35.6h-35.6H1182h-35.6h-35.6h-35.6l-35.6-3.3l-35.6-9.4l-35.6-14.9
		l-35.6-19.7l-35.6-23.8L862,478.7l-35.6-29.9l-35.6-31.9l-35.6-33.3l-35.6-34"/>
	<line class="st1" x1="1786.4" y1="584.7" x2="1430.9" y2="522"/>
	<line class="st1" x1="1786.4" y1="584.7" x2="1430.9" y2="545.6"/>
	<line class="st1" x1="1786.4" y1="584.7" x2="1430.9" y2="506.4"/>
	<line class="st1" x1="1786.4" y1="584.7" x2="1430.9" y2="561.2"/>
	<line class="st1" x1="1075.3" y1="663.1" x2="719.8" y2="576.9"/>
	<line class="st1" x1="1075.3" y1="663.1" x2="719.8" y2="365.3"/>
	<path class="st1" d="M1430.9,318.3h-35.6h-35.6h-35.6h-35.6h-35.6h-35.6H1182h-35.6h-35.6h-35.6l-35.6,3.8l-35.6,10.7l-35.6,16.9
		l-35.6,22.4l-35.6,27L862,430l-35.6,34l-35.6,36.3l-35.6,37.9l-35.6,38.7"/>
	<line class="st1" x1="1075.3" y1="396.6" x2="719.8" y2="349.6"/>
	<line class="st1" x1="1075.3" y1="396.6" x2="719.8" y2="365.3"/>
	<line class="st1" x1="1786.4" y1="75.3" x2="1430.9" y2="318.3"/>
	<path class="st1" d="M1786.4,75.3l-35.6,1.2l-35.6,1.1l-35.6,1.1l-35.6,1l-35.6,0.9l-35.6,0.8l-35.6,0.7l-35.6,0.5l-35.6,0.3
		l-35.6,0.1h-35.6h-35.6h-35.6H1288h-35.6h-35.6H1182h-35.6h-35.6h-35.6l-35.6,3.9L1004.2,98l-35.6,17.5L933,138.6l-35.6,27.8
		L862,198.2l-35.6,35l-35.6,37.4l-35.6,39l-35.6,39.8"/>
	<path class="st1" d="M1786.4,75.3l-35.6-1.2l-35.6-1.1l-35.6-1.1l-35.6-1l-35.6-0.9l-35.6-0.8l-35.6-0.7l-35.6-0.5l-35.6-0.3
		l-35.6-0.1h-35.6h-35.6h-35.6H1288h-35.6h-35.6H1182h-35.6h-35.6h-35.6l-35.6,4.3L1004,84.3l-35.6,19.5l-35.6,25.8l-35.6,31.1
		L862,196.1l-35.6,39.2l-35.6,41.8l-35.6,43.6l-35.6,44.5"/>
	<line class="st1" x1="2142" y1="51.8" x2="1786.4" y2="75.3"/>
	<path class="st1" d="M2142,51.8h-35.6h-35.6h-35.6h-35.6H1964h-35.6h-35.6h-35.6H1822h-35.6h-35.6h-35.6h-35.6H1644h-35.6h-35.6
		h-35.6H1502h-35.6h-35.6h-35.6h-35.6H1324h-35.6h-35.6h-35.6H1182h-35.6h-35.6h-35.6l-35.6,4.3L1004,68.5L968.7,88l-35.6,25.8
		l-35.6,31.1L862,180.4l-35.6,39.2l-35.6,41.8L755.2,305l-35.6,44.5"/>
	<line class="st1" x1="2142" y1="75.3" x2="1786.4" y2="75.3"/>
	<line class="st1" x1="719.8" y1="349.6" x2="364.2" y2="388.8"/>
	<line class="st1" x1="719.8" y1="576.9" x2="364.2" y2="388.8"/>
	<path class="st1" d="M1075.3,412.3h-35.6h-35.6h-35.6h-35.6h-35.6H862h-35.6h-35.6h-35.6h-35.6L684,412l-35.6-1l-35.6-1.5l-35.6-2
		L542,405l-35.6-2.8l-35.6-3.1l-35.6-3.3l-35.6-3.4l-35.6-3.5"/>
	<line class="st1" x1="719.8" y1="365.3" x2="364.2" y2="388.8"/>
	<line class="st1" x1="364.2" y1="388.8" x2="8.7" y2="388.8"/>
	<path class="st1" d="M1786.4,114.5l-35.6,0.2l-35.6,0.5l-35.6,0.8l-35.6,1.2l-35.6,1.5l-35.6,1.8l-35.6,2l-35.6,2.3l-35.6,2.6
		l-35.6,2.8l-35.6,6.3l-35.6,12.6l-35.6,18.3l-35.6,23.2l-35.6,27.5l-35.6,31.1l-35.6,34.1l-35.6,36.4l-35.6,38l-35.6,38.9"/>
	<path class="st1" d="M1786.4,114.5h-35.6h-35.6h-35.6H1644h-35.6h-35.6h-35.6H1502h-35.6h-35.6h-35.6h-35.6H1324h-35.6h-35.6h-35.6
		H1182h-35.6h-35.6h-35.6l-35.6,3.6l-35.6,10.4l-35.6,16.4l-35.6,21.7l-35.6,26.2l-35.6,30l-35.6,33L790.9,291l-35.6,36.7
		l-35.6,37.5"/>
	<path class="st1" d="M2142,4.7h-35.6h-35.6h-35.6h-35.6H1964h-35.6h-35.6h-35.6H1822h-35.6h-35.6h-35.6h-35.6H1644h-35.6h-35.6
		h-35.6H1502h-35.6h-35.6l-35.6,5.7l-35.6,16.3L1324,52.4l-35.6,33.9l-35.6,41l-35.6,46.8l-35.6,51.5l-35.6,55.1l-35.6,57.4
		l-35.6,58.6"/>
	<path class="st1" d="M2142,4.7L2106.4,7l-35.6,2.3l-35.6,2.2l-35.6,2.1l-35.6,1.9l-35.6,1.6l-35.6,1.4l-35.6,1l-35.6,0.7l-35.6,0.2
		h-35.6h-35.6h-35.6h-35.6H1608h-35.6h-35.6H1502h-35.6h-35.6h-35.6h-35.6H1324h-35.6h-35.6h-35.6H1182h-35.6h-35.6h-35.6l-35.6,5
		L1004,39.7l-35.6,22.6l-35.6,29.8l-35.6,36L862,169.4l-35.6,45.3l-35.6,48.5l-35.6,50.5l-35.6,51.6"/>
	<path class="st1" d="M2142,122.3l-35.6-3.5l-35.6-3.4l-35.6-3.3l-35.6-3.1l-35.6-2.8l-35.6-2.5l-35.6-2l-35.6-1.5l-35.6-1
		l-35.6-0.3h-35.6h-35.6h-35.6h-35.6H1608h-35.6h-35.6H1502h-35.6h-35.6l-35.6,5.6l-35.6,15.9l-35.6,25.2l-35.6,33.2l-35.6,40.1
		l-35.6,45.9l-35.6,50.5l-35.6,54l-35.6,56.3l-35.6,57.4"/>
	<line class="st1" x1="2142" y1="122.3" x2="1786.4" y2="114.5"/>
	<line class="st1" x1="2142" y1="122.3" x2="1786.4" y2="161.5"/>
	<path class="st1" d="M1786.4,161.5h-35.6h-35.6h-35.6H1644h-35.6h-35.6h-35.6H1502h-35.6h-35.6l-35.6,3.4l-35.6,9.8l-35.6,15.4
		l-35.6,20.3l-35.6,24.6l-35.6,28.1L1182,294l-35.6,33l-35.6,34.4l-35.6,35.2"/>
	<path class="st1" d="M1786.4,161.5l-35.6,0.2l-35.6,0.5l-35.6,0.8l-35.6,1.2l-35.6,1.5l-35.6,1.8l-35.6,2l-35.6,2.3l-35.6,2.6
		l-35.6,2.8l-35.6,5.9l-35.6,11.3l-35.6,16.2l-35.6,20.5l-35.6,24.2l-35.6,27.4l-35.6,30l-35.6,32l-35.6,33.4l-35.6,34.3"/>
	<path class="st1" d="M1786.4,161.5l-35.6-2.3l-35.6-2.3l-35.6-2.2l-35.6-2.1l-35.6-1.9l-35.6-1.6l-35.6-1.4l-35.6-1L1466,146
		l-35.6-0.2h-35.6h-35.6h-35.6H1288h-35.6h-35.6H1182h-35.6h-35.6h-35.6l-35.6,3.2l-35.6,9.1l-35.6,14.4l-35.6,19l-35.6,22.9
		L862,240.6l-35.6,28.9l-35.6,30.8l-35.6,32.2l-35.6,32.8"/>
</g>
<g transform="translate(2346.6667,1058.6487)">
	<circle class="st2" cx="-204.7" cy="-215.3" r="2.7"/>
</g>
<g transform="translate(2346.6667,1058.6487)">
	<path class="st2" d="M-204.7-217.3c1.1,0,2,0.9,2,2l0,0c0,1.1-0.9,2-2,2s-2-0.9-2-2S-205.8-217.3-204.7-217.3z M-204.7-218.6
		c-1.8,0-3.3,1.5-3.3,3.3s1.5,3.3,3.3,3.3s3.3-1.5,3.3-3.3l0,0C-201.3-217.1-202.8-218.6-204.7-218.6z"/>
</g>
<g transform="translate(2346.6667,1090)">
	<circle class="st2" cx="-204.7" cy="-215.3" r="2.7"/>
</g>
<g transform="translate(2346.6667,1090)">
	<path class="st2" d="M-204.7-217.3c1.1,0,2,0.9,2,2l0,0c0,1.1-0.9,2-2,2s-2-0.9-2-2S-205.8-217.3-204.7-217.3z M-204.7-218.6
		c-1.8,0-3.3,1.5-3.3,3.3s1.5,3.3,3.3,3.3s3.3-1.5,3.3-3.3l0,0C-201.3-217.1-202.8-218.6-204.7-218.6z"/>
</g>
<g transform="translate(1635.5555,933.2432)">
	<circle class="st2" cx="-204.7" cy="-215.3" r="2.7"/>
</g>
<g transform="translate(1635.5555,933.2432)">
	<path class="st2" d="M-204.7-217.3c1.1,0,2,0.9,2,2l0,0c0,1.1-0.9,2-2,2s-2-0.9-2-2S-205.8-217.3-204.7-217.3z M-204.7-218.6
		c-1.8,0-3.3,1.5-3.3,3.3s1.5,3.3,3.3,3.3s3.3-1.5,3.3-3.3l0,0C-201.3-217.1-202.8-218.6-204.7-218.6z"/>
</g>
<g transform="translate(924.4445,807.8378)">
	<circle class="st2" cx="-204.7" cy="-215.3" r="2.7"/>
</g>
<g transform="translate(924.4445,807.8378)">
	<path class="st2" d="M-204.7-217.3c1.1,0,2,0.9,2,2l0,0c0,1.1-0.9,2-2,2s-2-0.9-2-2S-205.8-217.3-204.7-217.3z M-204.7-218.6
		c-1.8,0-3.3,1.5-3.3,3.3s1.5,3.3,3.3,3.3s3.3-1.5,3.3-3.3l0,0C-201.3-217.1-202.8-218.6-204.7-218.6z"/>
</g>
<g transform="translate(1991.1111,948.9189)">
	<circle class="st2" cx="-204.7" cy="-215.3" r="2.7"/>
</g>
<g transform="translate(1991.1111,948.9189)">
	<path class="st2" d="M-204.7-217.3c1.1,0,2,0.9,2,2l0,0c0,1.1-0.9,2-2,2s-2-0.9-2-2S-205.8-217.3-204.7-217.3z M-204.7-218.6
		c-1.8,0-3.3,1.5-3.3,3.3s1.5,3.3,3.3,3.3s3.3-1.5,3.3-3.3l0,0C-201.3-217.1-202.8-218.6-204.7-218.6z"/>
</g>
<g transform="translate(1280,698.1081)">
	<circle class="st2" cx="-204.7" cy="-215.3" r="2.7"/>
</g>
<g transform="translate(1280,698.1081)">
	<path class="st2" d="M-204.7-217.3c1.1,0,2,0.9,2,2l0,0c0,1.1-0.9,2-2,2s-2-0.9-2-2S-205.8-217.3-204.7-217.3z M-204.7-218.6
		c-1.8,0-3.3,1.5-3.3,3.3s1.5,3.3,3.3,3.3s3.3-1.5,3.3-3.3l0,0C-201.3-217.1-202.8-218.6-204.7-218.6z"/>
</g>
<g transform="translate(2346.6667,933.2432)">
	<circle class="st2" cx="-204.7" cy="-215.3" r="2.7"/>
</g>
<g transform="translate(2346.6667,933.2432)">
	<path class="st2" d="M-204.7-217.3c1.1,0,2,0.9,2,2l0,0c0,1.1-0.9,2-2,2s-2-0.9-2-2S-205.8-217.3-204.7-217.3z M-204.7-218.6
		c-1.8,0-3.3,1.5-3.3,3.3s1.5,3.3,3.3,3.3s3.3-1.5,3.3-3.3l0,0C-201.3-217.1-202.8-218.6-204.7-218.6z"/>
</g>
<g transform="translate(2346.6667,251.3513)">
	<circle class="st2" cx="-204.7" cy="-215.3" r="2.7"/>
</g>
<g transform="translate(2346.6667,251.3513)">
	<path class="st2" d="M-204.7-217.3c1.1,0,2,0.9,2,2l0,0c0,1.1-0.9,2-2,2s-2-0.9-2-2S-205.8-217.3-204.7-217.3z M-204.7-218.6
		c-1.8,0-3.3,1.5-3.3,3.3s1.5,3.3,3.3,3.3s3.3-1.5,3.3-3.3l0,0C-201.3-217.1-202.8-218.6-204.7-218.6z"/>
</g>
<g transform="translate(1991.1111,643.2432)">
	<circle class="st2" cx="-204.7" cy="-215.3" r="2.7"/>
</g>
<g transform="translate(1991.1111,643.2432)">
	<path class="st2" d="M-204.7-217.3c1.1,0,2,0.9,2,2l0,0c0,1.1-0.9,2-2,2s-2-0.9-2-2S-205.8-217.3-204.7-217.3z M-204.7-218.6
		c-1.8,0-3.3,1.5-3.3,3.3s1.5,3.3,3.3,3.3s3.3-1.5,3.3-3.3l0,0C-201.3-217.1-202.8-218.6-204.7-218.6z"/>
</g>
<g transform="translate(2346.6667,564.8649)">
	<circle class="st2" cx="-204.7" cy="-215.3" r="2.7"/>
</g>
<g transform="translate(2346.6667,564.8649)">
	<path class="st2" d="M-204.7-217.3c1.1,0,2,0.9,2,2l0,0c0,1.1-0.9,2-2,2s-2-0.9-2-2S-205.8-217.3-204.7-217.3z M-204.7-218.6
		c-1.8,0-3.3,1.5-3.3,3.3s1.5,3.3,3.3,3.3s3.3-1.5,3.3-3.3l0,0C-201.3-217.1-202.8-218.6-204.7-218.6z"/>
</g>
<g transform="translate(1280,729.4595)">
	<circle class="st2" cx="-204.7" cy="-215.3" r="2.7"/>
</g>
<g transform="translate(1280,729.4595)">
	<path class="st2" d="M-204.7-217.3c1.1,0,2,0.9,2,2l0,0c0,1.1-0.9,2-2,2s-2-0.9-2-2S-205.8-217.3-204.7-217.3z M-204.7-218.6
		c-1.8,0-3.3,1.5-3.3,3.3s1.5,3.3,3.3,3.3s3.3-1.5,3.3-3.3l0,0C-201.3-217.1-202.8-218.6-204.7-218.6z"/>
</g>
<g transform="translate(1635.5555,690.2703)">
	<circle class="st2" cx="-204.7" cy="-215.3" r="2.7"/>
</g>
<g transform="translate(1635.5555,690.2703)">
	<path class="st2" d="M-204.7-217.3c1.1,0,2,0.9,2,2l0,0c0,1.1-0.9,2-2,2s-2-0.9-2-2S-205.8-217.3-204.7-217.3z M-204.7-218.6
		c-1.8,0-3.3,1.5-3.3,3.3s1.5,3.3,3.3,3.3s3.3-1.5,3.3-3.3l0,0C-201.3-217.1-202.8-218.6-204.7-218.6z"/>
</g>
<g transform="translate(1635.5555,737.2973)">
	<circle class="st2" cx="-204.7" cy="-215.3" r="2.7"/>
</g>
<g transform="translate(1635.5555,737.2973)">
	<path class="st2" d="M-204.7-217.3c1.1,0,2,0.9,2,2l0,0c0,1.1-0.9,2-2,2s-2-0.9-2-2S-205.8-217.3-204.7-217.3z M-204.7-218.6
		c-1.8,0-3.3,1.5-3.3,3.3s1.5,3.3,3.3,3.3s3.3-1.5,3.3-3.3l0,0C-201.3-217.1-202.8-218.6-204.7-218.6z"/>
</g>
<g transform="translate(1635.5555,760.8108)">
	<circle class="st2" cx="-204.7" cy="-215.3" r="2.7"/>
</g>
<g transform="translate(1635.5555,760.8108)">
	<path class="st2" d="M-204.7-217.3c1.1,0,2,0.9,2,2l0,0c0,1.1-0.9,2-2,2s-2-0.9-2-2S-205.8-217.3-204.7-217.3z M-204.7-218.6
		c-1.8,0-3.3,1.5-3.3,3.3s1.5,3.3,3.3,3.3s3.3-1.5,3.3-3.3l0,0C-201.3-217.1-202.8-218.6-204.7-218.6z"/>
</g>
<g transform="translate(1635.5555,705.9459)">
	<circle class="st2" cx="-204.7" cy="-215.3" r="2.7"/>
</g>
<g transform="translate(1635.5555,705.9459)">
	<path class="st2" d="M-204.7-217.3c1.1,0,2,0.9,2,2l0,0c0,1.1-0.9,2-2,2s-2-0.9-2-2S-205.8-217.3-204.7-217.3z M-204.7-218.6
		c-1.8,0-3.3,1.5-3.3,3.3s1.5,3.3,3.3,3.3s3.3-1.5,3.3-3.3l0,0C-201.3-217.1-202.8-218.6-204.7-218.6z"/>
</g>
<g transform="translate(1635.5555,721.6216)">
	<circle class="st2" cx="-204.7" cy="-215.3" r="2.7"/>
</g>
<g transform="translate(1635.5555,721.6216)">
	<path class="st2" d="M-204.7-217.3c1.1,0,2,0.9,2,2l0,0c0,1.1-0.9,2-2,2s-2-0.9-2-2S-205.8-217.3-204.7-217.3z M-204.7-218.6
		c-1.8,0-3.3,1.5-3.3,3.3s1.5,3.3,3.3,3.3s3.3-1.5,3.3-3.3l0,0C-201.3-217.1-202.8-218.6-204.7-218.6z"/>
</g>
<g transform="translate(1635.5555,776.4865)">
	<circle class="st2" cx="-204.7" cy="-215.3" r="2.7"/>
</g>
<g transform="translate(1635.5555,776.4865)">
	<path class="st2" d="M-204.7-217.3c1.1,0,2,0.9,2,2l0,0c0,1.1-0.9,2-2,2s-2-0.9-2-2S-205.8-217.3-204.7-217.3z M-204.7-218.6
		c-1.8,0-3.3,1.5-3.3,3.3s1.5,3.3,3.3,3.3s3.3-1.5,3.3-3.3l0,0C-201.3-217.1-202.8-218.6-204.7-218.6z"/>
</g>
<g transform="translate(1991.1111,580.5405)">
	<circle class="st3" cx="-204.7" cy="-215.3" r="2.7"/>
</g>
<g transform="translate(1991.1111,580.5405)">
	<path class="st3" d="M-204.7-217.3c1.1,0,2,0.9,2,2l0,0c0,1.1-0.9,2-2,2s-2-0.9-2-2S-205.8-217.3-204.7-217.3z M-204.7-218.6
		c-1.8,0-3.3,1.5-3.3,3.3s1.5,3.3,3.3,3.3s3.3-1.5,3.3-3.3l0,0C-201.3-217.1-202.8-218.6-204.7-218.6z"/>
</g>
<g transform="translate(1991.1111,909.7297)">
	<circle class="st3" cx="-204.7" cy="-215.3" r="2.7"/>
</g>
<g transform="translate(1991.1111,909.7297)">
	<path class="st3" d="M-204.7-217.3c1.1,0,2,0.9,2,2l0,0c0,1.1-0.9,2-2,2s-2-0.9-2-2S-205.8-217.3-204.7-217.3z M-204.7-218.6
		c-1.8,0-3.3,1.5-3.3,3.3s1.5,3.3,3.3,3.3s3.3-1.5,3.3-3.3l0,0C-201.3-217.1-202.8-218.6-204.7-218.6z"/>
</g>
<g transform="translate(2346.6667,854.8649)">
	<circle class="st3" cx="-204.7" cy="-215.3" r="2.7"/>
</g>
<g transform="translate(2346.6667,854.8649)">
	<path class="st3" d="M-204.7-217.3c1.1,0,2,0.9,2,2l0,0c0,1.1-0.9,2-2,2s-2-0.9-2-2S-205.8-217.3-204.7-217.3z M-204.7-218.6
		c-1.8,0-3.3,1.5-3.3,3.3s1.5,3.3,3.3,3.3s3.3-1.5,3.3-3.3l0,0C-201.3-217.1-202.8-218.6-204.7-218.6z"/>
</g>
<g transform="translate(1635.5555,572.7027)">
	<circle class="st3" cx="-204.7" cy="-215.3" r="2.7"/>
</g>
<g transform="translate(1635.5555,572.7027)">
	<path class="st3" d="M-204.7-217.3c1.1,0,2,0.9,2,2l0,0c0,1.1-0.9,2-2,2s-2-0.9-2-2S-205.8-217.3-204.7-217.3z M-204.7-218.6
		c-1.8,0-3.3,1.5-3.3,3.3s1.5,3.3,3.3,3.3s3.3-1.5,3.3-3.3l0,0C-201.3-217.1-202.8-218.6-204.7-218.6z"/>
</g>
<g transform="translate(2346.6667,431.6216)">
	<circle class="st3" cx="-204.7" cy="-215.3" r="2.7"/>
</g>
<g transform="translate(2346.6667,431.6216)">
	<path class="st3" d="M-204.7-217.3c1.1,0,2,0.9,2,2l0,0c0,1.1-0.9,2-2,2s-2-0.9-2-2S-205.8-217.3-204.7-217.3z M-204.7-218.6
		c-1.8,0-3.3,1.5-3.3,3.3s1.5,3.3,3.3,3.3s3.3-1.5,3.3-3.3l0,0C-201.3-217.1-202.8-218.6-204.7-218.6z"/>
</g>
<g transform="translate(1991.1111,745.1351)">
	<circle class="st3" cx="-204.7" cy="-215.3" r="2.7"/>
</g>
<g transform="translate(1991.1111,745.1351)">
	<path class="st3" d="M-204.7-217.3c1.1,0,2,0.9,2,2l0,0c0,1.1-0.9,2-2,2s-2-0.9-2-2S-205.8-217.3-204.7-217.3z M-204.7-218.6
		c-1.8,0-3.3,1.5-3.3,3.3s1.5,3.3,3.3,3.3s3.3-1.5,3.3-3.3l0,0C-201.3-217.1-202.8-218.6-204.7-218.6z"/>
</g>
<g transform="translate(1991.1111,760.8108)">
	<circle class="st3" cx="-204.7" cy="-215.3" r="2.7"/>
</g>
<g transform="translate(1991.1111,760.8108)">
	<path class="st3" d="M-204.7-217.3c1.1,0,2,0.9,2,2l0,0c0,1.1-0.9,2-2,2s-2-0.9-2-2S-205.8-217.3-204.7-217.3z M-204.7-218.6
		c-1.8,0-3.3,1.5-3.3,3.3s1.5,3.3,3.3,3.3s3.3-1.5,3.3-3.3l0,0C-201.3-217.1-202.8-218.6-204.7-218.6z"/>
</g>
<g transform="translate(1635.5555,792.1622)">
	<circle class="st3" cx="-204.7" cy="-215.3" r="2.7"/>
</g>
<g transform="translate(1635.5555,792.1622)">
	<path class="st3" d="M-204.7-217.3c1.1,0,2,0.9,2,2l0,0c0,1.1-0.9,2-2,2s-2-0.9-2-2S-205.8-217.3-204.7-217.3z M-204.7-218.6
		c-1.8,0-3.3,1.5-3.3,3.3s1.5,3.3,3.3,3.3s3.3-1.5,3.3-3.3l0,0C-201.3-217.1-202.8-218.6-204.7-218.6z"/>
</g>
<g transform="translate(1991.1111,800)">
	<circle class="st3" cx="-204.7" cy="-215.3" r="2.7"/>
</g>
<g transform="translate(1991.1111,800)">
	<path class="st3" d="M-204.7-217.3c1.1,0,2,0.9,2,2l0,0c0,1.1-0.9,2-2,2s-2-0.9-2-2S-205.8-217.3-204.7-217.3z M-204.7-218.6
		c-1.8,0-3.3,1.5-3.3,3.3s1.5,3.3,3.3,3.3s3.3-1.5,3.3-3.3l0,0C-201.3-217.1-202.8-218.6-204.7-218.6z"/>
</g>
<g transform="translate(1280,878.3784)">
	<circle class="st3" cx="-204.7" cy="-215.3" r="2.7"/>
</g>
<g transform="translate(1280,878.3784)">
	<path class="st3" d="M-204.7-217.3c1.1,0,2,0.9,2,2l0,0c0,1.1-0.9,2-2,2s-2-0.9-2-2S-205.8-217.3-204.7-217.3z M-204.7-218.6
		c-1.8,0-3.3,1.5-3.3,3.3s1.5,3.3,3.3,3.3s3.3-1.5,3.3-3.3l0,0C-201.3-217.1-202.8-218.6-204.7-218.6z"/>
</g>
<g transform="translate(1635.5555,533.5135)">
	<circle class="st4" cx="-204.7" cy="-215.3" r="2.7"/>
</g>
<g transform="translate(1635.5555,533.5135)">
	<path class="st4" d="M-204.7-217.3c1.1,0,2,0.9,2,2l0,0c0,1.1-0.9,2-2,2s-2-0.9-2-2S-205.8-217.3-204.7-217.3z M-204.7-218.6
		c-1.8,0-3.3,1.5-3.3,3.3s1.5,3.3,3.3,3.3s3.3-1.5,3.3-3.3l0,0C-201.3-217.1-202.8-218.6-204.7-218.6z"/>
</g>
<g transform="translate(1280,611.8919)">
	<circle class="st4" cx="-204.7" cy="-215.3" r="2.7"/>
</g>
<g transform="translate(1280,611.8919)">
	<path class="st4" d="M-204.7-217.3c1.1,0,2,0.9,2,2l0,0c0,1.1-0.9,2-2,2s-2-0.9-2-2S-205.8-217.3-204.7-217.3z M-204.7-218.6
		c-1.8,0-3.3,1.5-3.3,3.3s1.5,3.3,3.3,3.3s3.3-1.5,3.3-3.3l0,0C-201.3-217.1-202.8-218.6-204.7-218.6z"/>
</g>
<g transform="translate(1991.1111,290.5405)">
	<circle class="st4" cx="-204.7" cy="-215.3" r="2.7"/>
</g>
<g transform="translate(1991.1111,290.5405)">
	<path class="st4" d="M-204.7-217.3c1.1,0,2,0.9,2,2l0,0c0,1.1-0.9,2-2,2s-2-0.9-2-2S-205.8-217.3-204.7-217.3z M-204.7-218.6
		c-1.8,0-3.3,1.5-3.3,3.3s1.5,3.3,3.3,3.3s3.3-1.5,3.3-3.3l0,0C-201.3-217.1-202.8-218.6-204.7-218.6z"/>
</g>
<g transform="translate(2346.6667,267.027)">
	<circle class="st4" cx="-204.7" cy="-215.3" r="2.7"/>
</g>
<g transform="translate(2346.6667,267.027)">
	<path class="st4" d="M-204.7-217.3c1.1,0,2,0.9,2,2l0,0c0,1.1-0.9,2-2,2s-2-0.9-2-2S-205.8-217.3-204.7-217.3z M-204.7-218.6
		c-1.8,0-3.3,1.5-3.3,3.3s1.5,3.3,3.3,3.3s3.3-1.5,3.3-3.3l0,0C-201.3-217.1-202.8-218.6-204.7-218.6z"/>
</g>
<g transform="translate(2346.6667,290.5405)">
	<circle class="st4" cx="-204.7" cy="-215.3" r="2.7"/>
</g>
<g transform="translate(2346.6667,290.5405)">
	<path class="st4" d="M-204.7-217.3c1.1,0,2,0.9,2,2l0,0c0,1.1-0.9,2-2,2s-2-0.9-2-2S-205.8-217.3-204.7-217.3z M-204.7-218.6
		c-1.8,0-3.3,1.5-3.3,3.3s1.5,3.3,3.3,3.3s3.3-1.5,3.3-3.3l0,0C-201.3-217.1-202.8-218.6-204.7-218.6z"/>
</g>
<g transform="translate(924.4445,564.8649)">
	<circle class="st4" cx="-204.7" cy="-215.3" r="2.7"/>
</g>
<g transform="translate(924.4445,564.8649)">
	<path class="st4" d="M-204.7-217.3c1.1,0,2,0.9,2,2l0,0c0,1.1-0.9,2-2,2s-2-0.9-2-2S-205.8-217.3-204.7-217.3z M-204.7-218.6
		c-1.8,0-3.3,1.5-3.3,3.3s1.5,3.3,3.3,3.3s3.3-1.5,3.3-3.3l0,0C-201.3-217.1-202.8-218.6-204.7-218.6z"/>
</g>
<g transform="translate(924.4445,792.1622)">
	<circle class="st4" cx="-204.7" cy="-215.3" r="2.7"/>
</g>
<g transform="translate(924.4445,792.1622)">
	<path class="st4" d="M-204.7-217.3c1.1,0,2,0.9,2,2l0,0c0,1.1-0.9,2-2,2s-2-0.9-2-2S-205.8-217.3-204.7-217.3z M-204.7-218.6
		c-1.8,0-3.3,1.5-3.3,3.3s1.5,3.3,3.3,3.3s3.3-1.5,3.3-3.3l0,0C-201.3-217.1-202.8-218.6-204.7-218.6z"/>
</g>
<g transform="translate(1280,627.5676)">
	<circle class="st4" cx="-204.7" cy="-215.3" r="2.7"/>
</g>
<g transform="translate(1280,627.5676)">
	<path class="st4" d="M-204.7-217.3c1.1,0,2,0.9,2,2l0,0c0,1.1-0.9,2-2,2s-2-0.9-2-2S-205.8-217.3-204.7-217.3z M-204.7-218.6
		c-1.8,0-3.3,1.5-3.3,3.3s1.5,3.3,3.3,3.3s3.3-1.5,3.3-3.3l0,0C-201.3-217.1-202.8-218.6-204.7-218.6z"/>
</g>
<g transform="translate(924.4445,580.5405)">
	<circle class="st4" cx="-204.7" cy="-215.3" r="2.7"/>
</g>
<g transform="translate(924.4445,580.5405)">
	<path class="st4" d="M-204.7-217.3c1.1,0,2,0.9,2,2l0,0c0,1.1-0.9,2-2,2s-2-0.9-2-2S-205.8-217.3-204.7-217.3z M-204.7-218.6
		c-1.8,0-3.3,1.5-3.3,3.3s1.5,3.3,3.3,3.3s3.3-1.5,3.3-3.3l0,0C-201.3-217.1-202.8-218.6-204.7-218.6z"/>
</g>
<g transform="translate(568.8889,604.0541)">
	<circle class="st5" cx="-204.7" cy="-215.3" r="2.7"/>
</g>
<g transform="translate(568.8889,604.0541)">
	<path class="st5" d="M-204.7-217.3c1.1,0,2,0.9,2,2l0,0c0,1.1-0.9,2-2,2s-2-0.9-2-2S-205.8-217.3-204.7-217.3z M-204.7-218.6
		c-1.8,0-3.3,1.5-3.3,3.3s1.5,3.3,3.3,3.3s3.3-1.5,3.3-3.3l0,0C-201.3-217.1-202.8-218.6-204.7-218.6z"/>
</g>
<g transform="translate(1991.1111,329.7297)">
	<circle class="st6" cx="-204.7" cy="-215.3" r="2.7"/>
</g>
<g transform="translate(1991.1111,329.7297)">
	<path class="st6" d="M-204.7-217.3c1.1,0,2,0.9,2,2l0,0c0,1.1-0.9,2-2,2s-2-0.9-2-2S-205.8-217.3-204.7-217.3z M-204.7-218.6
		c-1.8,0-3.3,1.5-3.3,3.3s1.5,3.3,3.3,3.3s3.3-1.5,3.3-3.3l0,0C-201.3-217.1-202.8-218.6-204.7-218.6z"/>
</g>
<g transform="translate(2346.6667,220)">
	<circle class="st6" cx="-204.7" cy="-215.3" r="2.7"/>
</g>
<g transform="translate(2346.6667,220)">
	<path class="st6" d="M-204.7-217.3c1.1,0,2,0.9,2,2l0,0c0,1.1-0.9,2-2,2s-2-0.9-2-2S-205.8-217.3-204.7-217.3z M-204.7-218.6
		c-1.8,0-3.3,1.5-3.3,3.3s1.5,3.3,3.3,3.3s3.3-1.5,3.3-3.3l0,0C-201.3-217.1-202.8-218.6-204.7-218.6z"/>
</g>
<g transform="translate(2346.6667,337.5676)">
	<circle class="st6" cx="-204.7" cy="-215.3" r="2.7"/>
</g>
<g transform="translate(2346.6667,337.5676)">
	<path class="st6" d="M-204.7-217.3c1.1,0,2,0.9,2,2l0,0c0,1.1-0.9,2-2,2s-2-0.9-2-2S-205.8-217.3-204.7-217.3z M-204.7-218.6
		c-1.8,0-3.3,1.5-3.3,3.3s1.5,3.3,3.3,3.3s3.3-1.5,3.3-3.3l0,0C-201.3-217.1-202.8-218.6-204.7-218.6z"/>
</g>
<g transform="translate(1991.1111,376.7567)">
	<circle class="st6" cx="-204.7" cy="-215.3" r="2.7"/>
</g>
<g transform="translate(1991.1111,376.7567)">
	<path class="st6" d="M-204.7-217.3c1.1,0,2,0.9,2,2l0,0c0,1.1-0.9,2-2,2s-2-0.9-2-2S-205.8-217.3-204.7-217.3z M-204.7-218.6
		c-1.8,0-3.3,1.5-3.3,3.3s1.5,3.3,3.3,3.3s3.3-1.5,3.3-3.3l0,0C-201.3-217.1-202.8-218.6-204.7-218.6z"/>
</g>
<g transform="translate(213.3333,604.0541)">
	<circle class="st7" cx="-204.7" cy="-215.3" r="8"/>
</g>
<g transform="translate(213.3333,604.0541)">
	<path class="st7" d="M-204.7-222.6c4.1,0,7.3,3.3,7.3,7.3l0,0c0,4.1-3.3,7.3-7.3,7.3s-7.3-3.3-7.3-7.3S-208.7-222.6-204.7-222.6z
		 M-204.7-223.9c-4.8,0-8.7,3.9-8.7,8.7s3.9,8.7,8.7,8.7s8.7-3.9,8.7-8.7l0,0C-196-220-199.9-223.9-204.7-223.9z"/>
</g>
<g transform="translate(2352.3047,1060.7008) rotate(20)">
	<text transform="matrix(1 0 0 1 -265.9462 -125.7763)" class="st8 st9">epsilon</text>
</g>
<g transform="translate(2352.3047,1092.0521) rotate(20)">
	<text transform="matrix(1 0 0 1 -265.9462 -125.7763)" class="st8 st9">gauss_smooth</text>
</g>
<g transform="translate(1641.1937,935.2953) rotate(20)">
	<text transform="matrix(1 0 0 1 -265.946 -125.7761)" class="st8 st9">get_data_filename</text>
</g>
<g transform="translate(930.0826,809.89) rotate(20)">
	<text transform="matrix(1 0 0 1 -265.9462 -125.7761)" class="st8 st9">get_dll</text>
</g>
<g transform="translate(1996.7493,950.971) rotate(20)">
	<text transform="matrix(1 0 0 1 -265.9459 -125.7763)" class="st8 st9">get_filename</text>
</g>
<g transform="translate(1285.6382,700.1602) rotate(20)">
	<text transform="matrix(1 0 0 1 -265.9461 -125.776)" class="st8 st9">get_fr0</text>
</g>
<g transform="translate(2352.3047,935.2953) rotate(20)">
	<text transform="matrix(1 0 0 1 -265.9462 -125.7763)" class="st8 st9">get_id</text>
</g>
<g transform="translate(2352.3047,253.4035) rotate(20)">
	<text transform="matrix(1 0 0 1 -265.9461 -125.7761)" class="st8 st9">get_id_parts</text>
</g>
<g transform="translate(1996.7493,645.2953) rotate(20)">
	<text transform="matrix(1 0 0 1 -265.9459 -125.7762)" class="st8 st9">get_ids</text>
</g>
<g transform="translate(2352.3047,566.917) rotate(20)">
	<text transform="matrix(1 0 0 1 -265.9462 -125.7764)" class="st8 st9">get_info</text>
</g>
<g transform="translate(1285.6382,731.5116) rotate(20)">
	<text transform="matrix(1 0 0 1 -265.9462 -125.7763)" class="st8 st9">get_mean_resp</text>
</g>
<g transform="translate(1641.1937,692.3224) rotate(20)">
	<text transform="matrix(1 0 0 1 -265.946 -125.7761)" class="st8 st9">get_nonlin_params</text>
</g>
<g transform="translate(1641.1937,739.3494) rotate(20)">
	<text transform="matrix(1 0 0 1 -265.946 -125.7761)" class="st8 st9">get_resp</text>
</g>
<g transform="translate(1641.1937,762.8629) rotate(20)">
	<text transform="matrix(1 0 0 1 -265.946 -125.7761)" class="st8 st9">get_s_fr</text>
</g>
<g transform="translate(1641.1937,707.998) rotate(20)">
	<text transform="matrix(1 0 0 1 -265.9461 -125.7764)" class="st8 st9">get_s_knls</text>
</g>
<g transform="translate(1641.1937,723.6738) rotate(20)">
	<text transform="matrix(1 0 0 1 -265.946 -125.7762)" class="st8 st9">get_stim</text>
</g>
<g transform="translate(1641.1937,778.5386) rotate(20)">
	<text transform="matrix(1 0 0 1 -265.946 -125.7762)" class="st8 st9">get_trials</text>
</g>
<g transform="translate(1996.7493,582.5927) rotate(20)">
	<text transform="matrix(1 0 0 1 -265.9459 -125.7762)" class="st8 st9">code2stim</text>
</g>
<g transform="translate(1996.7493,911.7819) rotate(20)">
	<text transform="matrix(1 0 0 1 -265.9459 -125.7762)" class="st8 st9">get_filename</text>
</g>
<g transform="translate(2352.3047,856.917) rotate(20)">
	<text transform="matrix(1 0 0 1 -265.9462 -125.7764)" class="st8 st9">get_id</text>
</g>
<g transform="translate(1641.1937,574.7548) rotate(20)">
	<text transform="matrix(1 0 0 1 -265.9461 -125.7764)" class="st8 st9">load_data</text>
</g>
<g transform="translate(2352.3047,433.6738) rotate(20)">
	<text transform="matrix(1 0 0 1 -265.9462 -125.7764)" class="st8 st9">load_file</text>
</g>
<g transform="translate(1996.7493,747.1873) rotate(20)">
	<text transform="matrix(1 0 0 1 -265.9459 -125.7763)" class="st8 st9">load_map</text>
</g>
<g transform="translate(1996.7493,762.8629) rotate(20)">
	<text transform="matrix(1 0 0 1 -265.9459 -125.7762)" class="st8 st9">load_model</text>
</g>
<g transform="translate(1641.1937,794.2143) rotate(20)">
	<text transform="matrix(1 0 0 1 -265.9461 -125.7764)" class="st8 st9">load_profile</text>
</g>
<g transform="translate(1996.7493,802.0521) rotate(20)">
	<text transform="matrix(1 0 0 1 -265.9459 -125.7762)" class="st8 st9">load_result</text>
</g>
<g transform="translate(1285.6382,880.4305) rotate(20)">
	<text transform="matrix(1 0 0 1 -265.9461 -125.776)" class="st8 st9">load_trials</text>
</g>
<g transform="translate(1641.1937,535.5657) rotate(20)">
	<text transform="matrix(1 0 0 1 -265.946 -125.7762)" class="st8 st9">decide_bases</text>
</g>
<g transform="translate(1285.6382,613.944) rotate(20)">
	<text transform="matrix(1 0 0 1 -265.9462 -125.7763)" class="st8 st9">fit_model</text>
</g>
<g transform="translate(1996.7493,292.5927) rotate(20)">
	<text transform="matrix(1 0 0 1 -265.9459 -125.7762)" class="st8 st9">make_bases</text>
</g>
<g transform="translate(2352.3047,269.0792) rotate(20)">
	<text transform="matrix(1 0 0 1 -265.9461 -125.7761)" class="st8 st9">make_bsplie_bases</text>
</g>
<g transform="translate(2352.3047,292.5927) rotate(20)">
	<text transform="matrix(1 0 0 1 -265.9461 -125.7761)" class="st8 st9">make_knots</text>
</g>
<g transform="translate(930.0826,566.917) rotate(20)">
	<text transform="matrix(1 0 0 1 -265.9463 -125.7764)" class="st8 st9">make_model</text>
</g>
<g transform="translate(930.0826,794.2143) rotate(20)">
	<text transform="matrix(1 0 0 1 -265.9462 -125.7761)" class="st8 st9">make_profile</text>
</g>
<g transform="translate(1285.6382,629.6197) rotate(20)">
	<text transform="matrix(1 0 0 1 -265.9461 -125.776)" class="st8 st9">make_result</text>
</g>
<g transform="translate(930.0826,582.5927) rotate(20)">
	<text transform="matrix(1 0 0 1 -265.9462 -125.7761)" class="st8 st9">select_bases</text>
</g>
<g transform="translate(574.527,606.1061) rotate(20)">
	<text transform="matrix(1 0 0 1 -265.946 -125.7761)" class="st8 st9">smodel</text>
</g>
<g transform="translate(1996.7493,331.7819) rotate(20)">
	<text transform="matrix(1 0 0 1 -265.946 -125.7764)" class="st8 st9">dphi</text>
</g>
<g transform="translate(2352.3047,222.0521) rotate(20)">
	<text transform="matrix(1 0 0 1 -265.9461 -125.7761)" class="st8 st9">inv_phi</text>
</g>
<g transform="translate(2352.3047,339.6197) rotate(20)">
	<text transform="matrix(1 0 0 1 -265.9461 -125.776)" class="st8 st9">logsig</text>
</g>
<g transform="translate(1996.7493,378.8089) rotate(20)">
	<text transform="matrix(1 0 0 1 -265.9459 -125.7763)" class="st8 st9">phi</text>
</g>
<g transform="translate(218.9715,606.1061) rotate(20)">
	<text transform="matrix(1 0 0 1 -265.9457 -125.7762)" class="st8 st9">main</text>
</g>
<g>
	<path class="st10" d="M192.3,871.7v-374h-179v374H192.3z"/>
</g>
<g transform="translate(265,746.8337)">
	<text transform="matrix(1 0 0 1 -204.6666 -204.7579)" class="st8 st11">root</text>
</g>
<g transform="translate(242,746.8337)">
	<circle class="st7" cx="-204.7" cy="-215.3" r="4"/>
</g>
<g transform="translate(242,746.8337)">
	<path class="st7" d="M-204.7-218.9c2,0,3.7,1.6,3.7,3.7l0,0c0,2-1.6,3.7-3.7,3.7c-2,0-3.7-1.6-3.7-3.7S-206.7-218.9-204.7-218.9z
		 M-204.7-219.6c-2.4,0-4.3,1.9-4.3,4.3s1.9,4.3,4.3,4.3s4.3-1.9,4.3-4.3l0,0C-200.3-217.7-202.3-219.6-204.7-219.6z"/>
</g>
<g transform="translate(265,808.1002)">
	<text transform="matrix(1 0 0 1 -204.6666 -204.7579)" class="st8 st11">/lib/get</text>
</g>
<g transform="translate(242,808.1002)">
	<circle class="st2" cx="-204.7" cy="-215.3" r="4"/>
</g>
<g transform="translate(242,808.1002)">
	<path class="st2" d="M-204.7-218.9c2,0,3.7,1.6,3.7,3.7l0,0c0,2-1.6,3.7-3.7,3.7c-2,0-3.7-1.6-3.7-3.7S-206.7-218.9-204.7-218.9z
		 M-204.7-219.6c-2.4,0-4.3,1.9-4.3,4.3s1.9,4.3,4.3,4.3s4.3-1.9,4.3-4.3l0,0C-200.3-217.7-202.3-219.6-204.7-219.6z"/>
</g>
<g transform="translate(265,869.3668)">
	<text transform="matrix(1 0 0 1 -204.6666 -204.7579)" class="st8 st11">/lib/load</text>
</g>
<g transform="translate(242,869.3668)">
	<circle class="st3" cx="-204.7" cy="-215.3" r="4"/>
</g>
<g transform="translate(242,869.3668)">
	<path class="st3" d="M-204.7-218.9c2,0,3.7,1.6,3.7,3.7l0,0c0,2-1.6,3.7-3.7,3.7c-2,0-3.7-1.6-3.7-3.7S-206.7-218.9-204.7-218.9z
		 M-204.7-219.6c-2.4,0-4.3,1.9-4.3,4.3s1.9,4.3,4.3,4.3s4.3-1.9,4.3-4.3l0,0C-200.3-217.7-202.3-219.6-204.7-219.6z"/>
</g>
<g transform="translate(265,930.6332)">
	<text transform="matrix(1 0 0 1 -204.6666 -204.7579)" class="st8 st11">/lib/make</text>
</g>
<g transform="translate(242,930.6332)">
	<circle class="st4" cx="-204.7" cy="-215.3" r="4"/>
</g>
<g transform="translate(242,930.6332)">
	<path class="st4" d="M-204.7-218.9c2,0,3.7,1.6,3.7,3.7l0,0c0,2-1.6,3.7-3.7,3.7c-2,0-3.7-1.6-3.7-3.7S-206.7-218.9-204.7-218.9z
		 M-204.7-219.6c-2.4,0-4.3,1.9-4.3,4.3s1.9,4.3,4.3,4.3s4.3-1.9,4.3-4.3l0,0C-200.3-217.7-202.3-219.6-204.7-219.6z"/>
</g>
<g transform="translate(265,991.8998)">
	<text transform="matrix(1 0 0 1 -204.6666 -204.7579)" class="st8 st11">/lib/models</text>
</g>
<g transform="translate(242,991.8998)">
	<circle class="st5" cx="-204.7" cy="-215.3" r="4"/>
</g>
<g transform="translate(242,991.8998)">
	<path class="st5" d="M-204.7-218.9c2,0,3.7,1.6,3.7,3.7l0,0c0,2-1.6,3.7-3.7,3.7c-2,0-3.7-1.6-3.7-3.7S-206.7-218.9-204.7-218.9z
		 M-204.7-219.6c-2.4,0-4.3,1.9-4.3,4.3s1.9,4.3,4.3,4.3s4.3-1.9,4.3-4.3l0,0C-200.3-217.7-202.3-219.6-204.7-219.6z"/>
</g>
<g transform="translate(265,1053.1663)">
	<text transform="matrix(1 0 0 1 -204.6666 -204.7579)" class="st8 st11">/lib/nonlin</text>
</g>
<g transform="translate(242,1053.1663)">
	<circle class="st6" cx="-204.7" cy="-215.3" r="4"/>
</g>
<g transform="translate(242,1053.1663)">
	<path class="st6" d="M-204.7-218.9c2,0,3.7,1.6,3.7,3.7l0,0c0,2-1.6,3.7-3.7,3.7c-2,0-3.7-1.6-3.7-3.7S-206.7-218.9-204.7-218.9z
		 M-204.7-219.6c-2.4,0-4.3,1.9-4.3,4.3s1.9,4.3,4.3,4.3s4.3-1.9,4.3-4.3l0,0C-200.3-217.7-202.3-219.6-204.7-219.6z"/>
	<path class="st12" d="M-228.7-181.4v-374h179v374L-228.7-181.4L-228.7-181.4z"/>
</g>
</svg>
